<svg xmlns="http://www.w3.org/2000/svg" width="16" height="12" viewBox="0 0 16 12"><title>stacked</title><polygon points="8 8.01 0.02 12 15.97 12 8 8.01" fill="#fff"/><polygon points="7.99 8 7.99 0 7.99 0 0 12 0 12 0 12 7.99 8" fill="#fff"/><polygon points="8.01 0.02 8.01 8 16 12 16 12 16 12 8.01 0.02" fill="#fff"/><polygon points="8 8.01 0.02 12 15.97 12 8 8.01" fill="#2ab191" opacity="0"/><polygon points="7.99 8 7.99 0 7.99 0 0 12 0 12 0 12 7.99 8" fill="#115175" opacity="0"/><polygon points="8.01 0.02 8.01 8 16 12 16 12 16 12 8.01 0.02" fill="#CD2D33"/></svg>
