<svg xmlns="http://www.w3.org/2000/svg" width="50" height="50" viewBox="0 0 50 50"><title>greenstripe</title><path d="M0,46a9.71,9.71,0,0,0,1.55-1.07Q23.26,23.26,44.93,1.55A9.71,9.71,0,0,0,46,0h2a9.57,9.57,0,0,1-1.06,1.54Q24.26,24.27,1.54,46.94A9.57,9.57,0,0,1,0,48Z" fill="#46b394"/><path d="M50,9a9,9,0,0,0-1.54,1.07Q29.24,29.24,10.07,48.46A9,9,0,0,0,9,50H7a9.57,9.57,0,0,1,1.06-1.54q20.17-20.22,40.4-40.4A9.57,9.57,0,0,1,50,7Z" fill="#46b394"/><path d="M0,36a9.57,9.57,0,0,0,1.54-1.06q16.72-16.68,33.4-33.4A9.57,9.57,0,0,0,36,0h2a10.79,10.79,0,0,1-1.06,1.54Q19.26,19.25,1.54,36.94A10.79,10.79,0,0,1,0,38Z" fill="#46b394"/><path d="M50,19a2.61,2.61,0,0,0-.84.36q-14.91,14.88-29.8,29.8A2.61,2.61,0,0,0,19,50H17a9.71,9.71,0,0,1,1.07-1.55Q33.24,33.24,48.45,18.07A9.71,9.71,0,0,1,50,17Z" fill="#46b394"/><path d="M0,26c.89-.66,1.76-1.36,2.58-2.1Q13.44,13.09,24.25,2.23A23.51,23.51,0,0,0,26,0h2a31,31,0,0,1-2.13,2.6Q14.28,14.27,2.6,25.87A31,31,0,0,1,0,28Z" fill="#46b394"/><path d="M50,29c-3.94,3.77-7.93,7.48-11.79,11.33C35.06,43.47,32.06,46.77,29,50H27c2.58-2.74,5.08-5.57,7.75-8.22,5-5,10.16-9.86,15.25-14.78Z" fill="#46b394"/><path d="M0,16,16,0h2L0,18Z" fill="#46b394"/><path d="M50,39,39,50H37L50,37Z" fill="#46b394"/><path d="M0,6,6,0H8L0,8Z" fill="#46b394"/><path d="M47,50l3-3v2l-1,1Z" fill="#46b394"/></svg>