<svg xmlns="http://www.w3.org/2000/svg" width="100" height="100" viewBox="0 0 100 100"><title>stripes</title><polygon points="68.16 0 66.75 0 0 66.55 0 67.96 68.16 0" fill="#5cc181"/><polygon points="78.51 0 77.1 0 0 76.87 0 78.28 78.51 0" fill="#f4da97"/><polygon points="58.81 0 57.4 0 0 57.23 0 58.64 58.81 0" fill="#f4da97"/><polygon points="87.87 0 86.45 0 0 86.2 0 87.61 87.87 0" fill="#5cc181"/><polygon points="98.22 0 96.8 0 0 96.52 0 97.93 98.22 0" fill="#f4da97"/><polygon points="18.09 0 16.67 0 0 16.62 0 18.03 18.09 0" fill="#f4da97"/><polygon points="48.46 0 47.05 0 0 46.91 0 48.32 48.46 0" fill="#5cc181"/><polygon points="0 6.57 0 7.98 8 0 6.59 0 0 6.57" fill="#5cc181"/><polygon points="38.62 0 37.2 0 0 37.09 0 38.5 38.62 0" fill="#f4da97"/><polygon points="28.27 0 26.85 0 0 26.77 0 28.18 28.27 0" fill="#5cc181"/><polygon points="100 7.88 100 6.46 6.18 100 7.6 100 100 7.88" fill="#5cc181"/><polygon points="100 18.2 100 16.78 16.53 100 17.95 100 100 18.2" fill="#f4da97"/><polygon points="100 78.27 100 76.86 76.79 100 78.21 100 100 78.27" fill="#f4da97"/><polygon points="100 88.27 100 86.86 86.82 100 88.24 100 100 88.27" fill="#5cc181"/><polygon points="100 97.85 100 96.44 96.43 100 97.84 100 100 97.85" fill="#f4da97"/><polygon points="100 67.95 100 66.54 66.44 100 67.86 100 100 67.95" fill="#5cc181"/><polygon points="100 38 100 36.59 36.4 100 37.81 100 100 38" fill="#f4da97"/><polygon points="100 58.14 100 56.73 56.59 100 58.01 100 100 58.14" fill="#f4da97"/><polygon points="100 27.68 100 26.27 26.05 100 27.46 100 100 27.68" fill="#5cc181"/><polygon points="100 47.82 100 46.41 46.25 100 47.66 100 100 47.82" fill="#5cc181"/></svg>