<svg xmlns="http://www.w3.org/2000/svg" viewBox="0 0 15.5 15.5"><circle cx="7.75" cy="7.75" r="7.75" fill="#fff" opacity=".01"/><path stroke="#eaeaea" stroke-width="2%" paint-order="stroke" d="M9.65 10.75l2.28 3.56A7.68 7.68 0 0 0 14.27 12l-3.52-2.35a3.84 3.84 0 0 1-1.1 1.1zm-1.9.52a3.82 3.82 0 0 1-.75-.08l-.91 4.13a7.74 7.74 0 0 0 3.32 0l-.91-4.13a3.82 3.82 0 0 1-.75.08zm-3-1.62l-3.52 2.28a7.68 7.68 0 0 0 2.34 2.34l2.28-3.52a3.84 3.84 0 0 1-1.1-1.1zm6.52-1.9a3.82 3.82 0 0 1-.08.75l4.13.91a7.74 7.74 0 0 0 0-3.32L11.19 7a3.82 3.82 0 0 1 .08.75zm-7 0A3.82 3.82 0 0 1 4.31 7L.18 6.09a7.74 7.74 0 0 0 0 3.32l4.13-.91a3.82 3.82 0 0 1-.08-.75zm6.52-1.9l3.56-2.28A7.68 7.68 0 0 0 12 1.23L9.65 4.75a3.84 3.84 0 0 1 1.1 1.1zm-3-1.62a3.82 3.82 0 0 1 .75.08L9.41.18a7.74 7.74 0 0 0-3.32 0L7 4.31a3.82 3.82 0 0 1 .75-.08zm-1.9.52L3.57 1.23a7.68 7.68 0 0 0-2.34 2.34l3.52 2.28a3.84 3.84 0 0 1 1.1-1.1z"/></svg>
