<svg xmlns="http://www.w3.org/2000/svg" width="16" height="16" viewBox="0 0 16 16"><rect x="5.07" y="4.95" width="10.6" height="10.69" fill="#2ab191"/><polygon points="15.67 4.95 10.43 0.33 0.33 0.33 5.07 4.95 15.67 4.95" fill="#2ab191"/><polygon points="5.1 4.98 5.1 15.67 0.33 11.06 0.33 0.33 5.1 4.98" fill="#2ab191"/><path d="M16,4.92a.36.36,0,0,0-.07-.17l0,0h0L10.65.08A.35.35,0,0,0,10.43,0H.33L.27,0H.2s0,0,0,0A.13.13,0,0,0,.11.11.13.13,0,0,0,.05.18l0,0V.27A.14.14,0,0,0,0,.33V11.06a.35.35,0,0,0,.1.24l4.74,4.57h0l0,0A.31.31,0,0,0,5.1,16a.28.28,0,0,0,.13,0H15.67a.33.33,0,0,0,.33-.33V4.92Zm-1.19-.3H5.21L1.14.66h9.17ZM.66,1.11l4.08,4v9.77L.66,10.92Zm14.68,14.2H5.43v-10h9.91Z"/></svg>
