<svg xmlns="http://www.w3.org/2000/svg" width="15.78" height="47.26" viewBox="0 0 15.78 47.26"><title>stacked</title><polygon points="5.98 1.12 7.57 1.9 7.57 47.02 5.98 46 5.98 1.12" fill="yellow"/><polygon points="5.98 1.12 7.54 0.48 9.13 1.12 7.57 1.9 5.98 1.12" fill="yellow"/><polygon points="7.57 1.9 7.57 47.02 9.02 46 9.13 1.12 7.57 1.9" fill="yellow"/><path d="M15.72,7.48,8.75.07A.26.26,0,0,0,8.57,0a.25.25,0,0,0-.18.08l-.3.37L7.62.26a.25.25,0,0,0-.17,0L5.89.91a0,0,0,0,0,0,0h0L5.81,1l0,0,0,.09v0h0V3.24L.05,10a.23.23,0,0,0,0,.18.26.26,0,0,0,.09.16l5.66,4.48V46a.26.26,0,0,0,.1.2l1.58,1,0,0a.2.2,0,0,0,.11,0l.07,0,.05,0h0l1.45-1a.23.23,0,0,0,.1-.19l.08-30.39,6.4-7.82A.23.23,0,0,0,15.72,7.48Zm-7.92-6L8.23,1l.32.14Zm-.47,14L6.22,14.6V3.41L7.33,2.08ZM7.81,2,8.89,1.5l0,13.94-.63.76-.42-.33ZM8.58.59l.1.1L8.55.63Zm-1,.14.23.1-.54.64-.68-.33ZM6.22,1.5l.7.34-.7.84ZM.57,10.13,5.75,4V14.23ZM6.22,15.2l1.11.89V46.58l-1.11-.71ZM8.78,45.87l-1,.7V16.47l.31.24a.2.2,0,0,0,.15.05.27.27,0,0,0,.18-.08l.4-.5Zm.55-31,0-13.45,5.88,6.24Z"/><polygon points="8.25 16.17 0.56 10.07 8.55 0.55 15.23 7.65 8.25 16.17"  fill="yellow"/></svg>
