<svg xmlns="http://www.w3.org/2000/svg" width="15.78" height="18.69" viewBox="0 0 15.78 18.69"><title>sign</title>
<polygon points="2.06 17.75 3.04 17.06 3.11 15.2 3.15 1.26 2.06 1.8 2.06 17.75" fill="#fff" transform="translate(5.75 0)"/>
<polygon points="0.47 17.05 1.59 17.77 1.59 1.8 0.47 1.25 0.47 17.05" fill="#fff" transform="translate(5.75 0)"/>
<polygon points="1.79 0.49 0.81 0.9 1.82 1.39 2.81 0.9 2.81 0.9 2.81 0.9 1.79 0.49" fill="#fff" transform="translate(5.75 0)"/>
<path d="M7.45.26,5.89.91a0,0,0,0,0,0,0h0L5.81,1l0,0,0,.09v0h0v16.3a.25.25,0,0,0,.1.2l1.58,1,0,0a.2.2,0,0,0,.11,0l.07,0H7.7l1.45-1a.23.23,0,0,0,.1-.19l.08-2.57L9.36,1,7.62.26A.25.25,0,0,0,7.45.26ZM7.33,18,6.22,17.3V1.5L7.33,2Zm1.52-2.57L8.78,17.3l-1,.69V2L8.89,1.5ZM8.55,1.15l-1,.48-1-.49,1-.41,1,.41h0Z" transform="translate(0 0)"/></svg>
