<svg xmlns="http://www.w3.org/2000/svg" viewBox="0 0 11.64 15.49"><path d="M3-.24H7.09L8.36,0A7.55,7.55,0,0,1,9.88.21a2.74,2.74,0,0,1,1.74,2.86c0,2.44,0,4.87,0,7.31a1.33,1.33,0,0,1-1,1.47c-.68.16-.63.39-.28.85a15.52,15.52,0,0,1,1.2,1.79c.09.17-.07.5-.11.76-.2-.11-.51-.16-.59-.32-.39-.8-1.06-.83-1.82-.82q-3.23,0-6.47,0c-.79,0-1.51,0-1.93.83-.08.16-.39.21-.6.31a2.65,2.65,0,0,1,0-.79,1.75,1.75,0,0,1,.37-.6c.27-.4.54-.8.82-1.18S1.67,12,1,11.86a1.24,1.24,0,0,1-.91-1.27c0-2.72,0-5.44,0-8.16A2.49,2.49,0,0,1,2.12,0C2.42,0,2.71-.15,3-.24ZM5,6.48v.06c1.11-.06,2.22-.08,3.33-.18.57-.05,1.37,0,1.64-.39a3.54,3.54,0,0,0,.28-1.83c.06-1.31-.31-1.62-1.59-1.59S6,2.5,4.7,2.48c-.63,0-1.27,0-1.91,0-1.07,0-1.42.42-1.46,1.46,0,.52,0,1,0,1.56,0,.79.21,1,1,1S4.09,6.48,5,6.48Zm.75,6.77h0c1,0,1.91,0,2.87,0A3.41,3.41,0,0,0,9.43,13a2.85,2.85,0,0,0-.49-.79A1.5,1.5,0,0,0,8.09,12c-1.52,0-3,0-4.55,0a1.29,1.29,0,0,0-1.25.73c-.23.37-.19.59.3.59ZM3.39,9a1,1,0,0,0-1-.93,1,1,0,0,0-1,1,1.15,1.15,0,0,0,1.05,1A1.11,1.11,0,0,0,3.39,9Zm5.71-.9a1,1,0,0,0-.87,1.09.9.9,0,0,0,1,.76,1,1,0,0,0,.89-.94A1,1,0,0,0,9.1,8.14ZM5.77.88V.94A5.52,5.52,0,0,0,4.7.89c-.18,0-.34.23-.52.36.16.2.32.56.47.56.83,0,1.66-.1,2.48-.19.11,0,.31-.24.29-.31S7.21.92,7.07.9A11.28,11.28,0,0,0,5.77.88Z" transform="translate(0 0.24)" fill="#f2c730"/></svg>
